<?xml version="1.0" standalone="no"?>
<!DOCTYPE svg PUBLIC "-//W3C//DTD SVG 20010904//EN"
 "http://www.w3.org/TR/2001/REC-SVG-20010904/DTD/svg10.dtd">
<svg version="1.0" xmlns="http://www.w3.org/2000/svg"
 width="674.000000pt" height="674.000000pt" viewBox="0 0 674.000000 674.000000"
 preserveAspectRatio="xMidYMid meet">
<metadata>
Created by potrace 1.11, written by Peter Selinger 2001-2013
</metadata>
<g transform="translate(0.000000,674.000000) scale(0.100000,-0.100000)"
fill="#000000" stroke="none">
<path d="M1510 5533 c0 -30 61 -687 66 -710 l4 -23 420 0 420 0 0 -1260 c0
-1001 -3 -1260 -12 -1260 -29 0 -384 53 -390 59 -5 4 -58 539 -58 584 0 4
-169 7 -375 7 -323 0 -375 -2 -375 -15 0 -54 103 -1151 108 -1156 4 -4 45 -14
92 -22 47 -9 461 -90 919 -181 459 -91 836 -166 838 -166 2 0 3 936 3 2080 l0
2080 -830 0 c-784 0 -830 -1 -830 -17z"/>
<path d="M3580 4420 l0 -1120 505 0 505 0 0 -22 c-1 -48 -87 -939 -92 -943 -2
-2 -210 -42 -461 -87 l-457 -83 0 -382 c0 -320 2 -383 14 -383 28 0 1588 358
1595 367 5 4 52 496 105 1093 53 597 100 1106 103 1133 l6 47 -527 0 -526 0 0
380 0 380 558 0 558 0 33 363 c17 199 31 365 31 370 0 4 -439 7 -975 7 l-975
0 0 -1120z"/>
</g>
</svg>
